# xmcd
#
# Track frame offsets:
#	150
#	9929
#	21403
#	33323
#	46011
#	59005
#	75954
#	89115
#	103417
#	117716
#	131689
#	145500
#	157859
#	170554
#	182463
#	203536
#	217319
#	227115
#	238718
#	253343
#	266705
#	283684
#	294604
#	306672
#	321086
#
# Disc length: 4493 seconds
#
# Revision: 1
# Processed by: cddbd v1.5.2PL0 Copyright (c) Steve Scherf et al.
# Submitted via: EasyCDDAExtractor 16.0.6.1
#
DISCID=78118b19
DTITLE=Συλλογικός δίσκος - Στις μπουάτ του '60 1
DYEAR=2012
DGENRE=Νέο κύμα
TTITLE0=Χωματά Καίτη-Βιολάρης Μιχ.-χορωδία - Άσπρα καράβια [Γ. Σπανός-Σωτ. Σκί
TTITLE0=πης]
TTITLE1=Αρλέτα - Μιά φορά θυμάμαι [Γ. Σπανός-Γ. Παπαστεφάνου]
TTITLE2=Χωματά Καίτη - Να διώξω τα σύννεφα [Ηλ. Παπακώστα-Άκος Δασκαλόπουλος]
TTITLE3=Αστεριάδη Πόπη - Μιά γιορτή [Ηλ. Καραγιάννης]
TTITLE4=Ζωγράφος Γιώργος - Μικρό παιδί [Λ. Κόκοτος-Αργ. Βεργόπουλος]
TTITLE5=Γαλάνη Δήμητρα - Θάλασσά μου χωρίς άκρη [Γ. Σπανός-Κ. Ασημακόπουλος]
TTITLE6=Πουλόπουλος Γιάννης-Κλαδή Ελένη - Μιά φορά μονάχα φτάνει [Γ. Σπανός-Κώ
TTITLE6=στας Κινδύνης]
TTITLE7=Μπιρμπίλη Σούλα - Ήταν μεγάλη η νύχτα [Ν. Μαυρουδής-Γ. Κακουλίδης]
TTITLE8=Βιολάρης Μιχάλης - Τι Λωζάνη, τι Κοζάνη [Γ. Κριμιζάκης-Γ. Κακουλίδης]
TTITLE9=Μαβίλη Αλέκα-Σπανός Γιάννης - Όλο το καλοκαίρι [Γ. Σπανός-Κώστας Κωτού
TTITLE9=λας]
TTITLE10=Αστεριάδη Πόπη - Έρωτας τάχα [Γ. Σπανός-Μυρτιώτισσα]
TTITLE11=Χουλιαράς Νίκος - Το τσιμεντένιο δάσος [Ν. Χουλιαράς]
TTITLE12=Αρλέτα - Σαράντα μέρες [Ν. Μαυρουδής-Γ. Κακουλίδης]
TTITLE13=Βιολάρης Μιχάλης-Κουμιώτη Ρένα - Ντούκου ντούκου μηχανάκι [Λ. Κόκοτος
TTITLE13=Οδ. Ελύτης]
TTITLE14=Παππάς Λάκης - Μην κουραστείς να μ' αγαπάς [Γ. Αργύρης-Σπ. Παππάς]
TTITLE15=Μητσιάς Μανώλης - Μη βάζεις μαράζι [Γ. Σπανός-Κ. Ασημακόπουλος]
TTITLE16=Ζωγράφος Γιώργος - Τ' όνειρό μου πέθανε [Γ. Σπανός-Ναπ. Λαπαθιώτης]
TTITLE17=Χωματά Καίτη - Τάχα γιατί [Γ. Σπανός-Γ. Παπαστεφάνου]
TTITLE18=Γεωργίου Αλέξης - Κυριακή χωρίς αγάπη [Στ. Κουγιουμτζής]
TTITLE19=Ντίκος Βαγγέλης - Αυτούς που βλέπεις [Μ. Θεοδωράκης-Μιχ. Κατσαρός]
TTITLE20=Παππάς Λάκης - Μάτια μου, μάτια σκαλιστά [Λ. Παππάς-Δημ. Ιατρόπουλος]
TTITLE21=Πουλόπουλος Γιάννης - Καράβια αλήτες [Μ. Λοΐζος-Φώντας Λάδης]
TTITLE22=Βιολάρης Μιχάλης - Μην κλαίς για μένανε [Γ. Σπανός-Λ. Παπαδόπουλος]
TTITLE23=Σαββόπουλος Πάνος - Άκου μικρό μου ταίρι [Π. Σαββόπουλος]
TTITLE24=Ντίκος Βαγγέλης - Λιμάνια [Βαγγ. Ντίκος-Κ. Γεωργακάκη]
EXTD=
EXTT0=
EXTT1=
EXTT2=
EXTT3=
EXTT4=
EXTT5=
EXTT6=
EXTT7=
EXTT8=
EXTT9=
EXTT10=
EXTT11=
EXTT12=
EXTT13=
EXTT14=
EXTT15=
EXTT16=
EXTT17=
EXTT18=
EXTT19=
EXTT20=
EXTT21=
EXTT22=
EXTT23=
EXTT24=
PLAYORDER=
